<svg width="100" height="100" viewBox="0 0 100 100" fill="none" xmlns="http://www.w3.org/2000/svg">
<g filter="url(#filter0_i_267_103)">
<path d="M51.2115 43.808H50.2929H30.8654L15.3656 65.1246L50.9217 100L52.3865 98.5627L86.4746 65.1246L70.9777 43.808H51.2115ZM67.5416 47.998L64.6791 60.7146L54.5504 47.998H67.5416ZM50.7781 49.2095L61.798 63.0371H39.9933L50.7781 49.2095ZM47.0215 47.998L37.1459 60.6629V60.666L34.3015 47.9982H47.0215V47.998ZM31.0914 50.6164L33.8838 63.0371H22.0582L31.0914 50.6164ZM35.0097 66.748L44.7877 88.1195L22.998 66.748H35.0097ZM50.9217 92.6117L39.0869 66.748H62.7533L50.9217 92.6117ZM57.0525 88.1195L66.8304 66.748H78.839L57.0525 88.1195ZM67.9566 63.0371L70.7521 50.6164L79.7822 63.0371H67.9566Z" fill="#f2494e"/>
<path d="M97.8943 35.5285C92.8346 35.5285 91.0859 34.259 90.1002 33.2764C89.1205 32.2906 87.8481 30.542 87.8481 25.4822C87.8481 25.2901 87.8297 24.7438 87.2254 24.7438C86.6242 24.7438 86.6027 25.2901 86.6027 25.4822C86.6027 30.542 85.3301 32.2906 84.3475 33.2764C83.3617 34.259 81.61 35.5285 76.5563 35.5285C76.3609 35.5285 75.8178 35.5498 75.8178 36.1541C75.8178 36.7553 76.3609 36.7768 76.5563 36.7768C81.61 36.7768 83.3617 38.0494 84.3475 39.0321C85.3301 40.0147 86.6027 41.7664 86.6027 46.8262C86.6027 47.0215 86.624 47.5617 87.2254 47.5617C87.8297 47.5617 87.8481 47.0215 87.8481 46.8262C87.8481 41.7664 89.1207 40.0147 90.1002 39.0321C91.0859 38.0463 92.8346 36.7768 97.8943 36.7768C98.0897 36.7768 98.6328 36.7584 98.6328 36.1512C98.6328 35.553 98.0897 35.5285 97.8943 35.5285Z" fill="#f2494e"/>
<path d="M22.635 16.5344C29.5898 16.5344 31.9947 18.2861 33.3467 19.635C34.6986 20.9869 36.4441 23.3947 36.4441 30.3496C36.4441 30.615 36.4809 31.3598 37.3047 31.3598C38.1348 31.3598 38.1592 30.615 38.1592 30.3496C38.1592 23.3947 39.9078 20.9867 41.2598 19.635C42.6086 18.283 45.0135 16.5344 51.9715 16.5344C52.2369 16.5344 52.9848 16.51 52.9848 15.6799C52.9848 14.8559 52.2371 14.8193 51.9715 14.8193C45.0135 14.8193 42.6086 13.0736 41.2598 11.7248C39.9078 10.3697 38.1592 7.96816 38.1592 1.01309C38.1592 0.747656 38.1348 0 37.3047 0C36.4807 0 36.4441 0.747656 36.4441 1.01328C36.4441 7.96816 34.6984 10.3699 33.3467 11.725C31.9947 13.0738 29.59 14.8195 22.635 14.8195C22.3695 14.8195 21.6217 14.8531 21.6217 15.6801C21.6217 16.5039 22.3693 16.5344 22.635 16.5344Z" fill="#f2494e"/>
<path d="M22.3541 38.2813C22.3541 37.729 21.8535 37.7075 21.6766 37.7075C17.0227 37.7075 15.4113 36.5387 14.508 35.6354C13.6047 34.729 12.4328 33.1208 12.4328 28.4668C12.4328 28.2899 12.4145 27.7893 11.859 27.7893C11.3096 27.7893 11.2852 28.2899 11.2852 28.4668C11.2852 33.1208 10.1164 34.7291 9.21309 35.6354C8.30664 36.5387 6.69531 37.7075 2.04453 37.7075C1.86465 37.7077 1.36719 37.729 1.36719 38.2813C1.36719 38.8336 1.86465 38.8551 2.04473 38.8551C6.6957 38.8551 8.30703 40.027 9.21328 40.9303C10.1166 41.8336 11.2854 43.445 11.2854 48.102C11.2854 48.279 11.3098 48.7764 11.8592 48.7764C12.4146 48.7764 12.433 48.279 12.433 48.102C12.433 43.445 13.6049 41.8336 14.5082 40.9303C15.4115 40.0239 17.0229 38.8551 21.6768 38.8551C21.8537 38.8551 22.3541 38.8368 22.3541 38.2813Z" fill="#f2494e"/>
</g>
<defs>
<filter id="filter0_i_267_103" x="0" y="0" width="100" height="104" filterUnits="userSpaceOnUse" color-interpolation-filters="sRGB">
<feFlood flood-opacity="0" result="BackgroundImageFix"/>
<feBlend mode="normal" in="SourceGraphic" in2="BackgroundImageFix" result="shape"/>
<feColorMatrix in="SourceAlpha" type="matrix" values="0 0 0 0 0 0 0 0 0 0 0 0 0 0 0 0 0 0 127 0" result="hardAlpha"/>
<feOffset dy="4"/>
<feGaussianBlur stdDeviation="2"/>
<feComposite in2="hardAlpha" operator="arithmetic" k2="-1" k3="1"/>
<feColorMatrix type="matrix" values="0 0 0 0 0 0 0 0 0 0 0 0 0 0 0 0 0 0 0.25 0"/>
<feBlend mode="normal" in2="shape" result="effect1_innerShadow_267_103"/>
</filter>
</defs>
</svg>
