<svg width="100" height="100" viewBox="0 0 100 100" fill="none" xmlns="http://www.w3.org/2000/svg">
<g filter="url(#filter0_i_278_110)">
<path d="M88.564 65.9696C88.564 49.9533 84.0834 37.8853 75.2482 30.1073C64.7266 20.8369 52.0726 21.2864 48.8325 21.5777H43.1149C42.4461 19.3446 40.2777 17.6905 37.6779 17.6905H34.8335C32.2337 17.6905 30.0653 19.3409 29.3893 21.5777H9.28438V38.6154H29.1592V40.3055C29.1592 43.2361 31.7087 45.624 34.8336 45.624H37.678C40.8102 45.624 43.3524 43.2399 43.3524 40.3055V38.6154H49.2677L49.7243 38.6261L50.2565 38.5579C50.3394 38.5471 58.2971 37.774 64.1153 43.0061C69.0382 47.4292 71.5266 55.1532 71.5266 65.9698H88.5643L88.564 65.9696ZM26.1888 15.2487H46.7936C49.2335 15.2468 51.2108 13.2692 51.213 10.8295V8.5531C51.211 6.11316 49.2335 4.13582 46.7938 4.13367H26.1889C23.7473 4.13367 21.768 6.11189 21.7658 8.55291V10.8328C21.7698 13.2724 23.7486 15.2487 26.1889 15.2487H26.1888ZM83.2744 70.3278L80.4085 67.0808L77.5426 70.3278C75.4066 72.7478 68.4341 81.0832 68.4341 86.6031C68.4341 93.2052 73.8064 98.5777 80.4087 98.5777C87.011 98.5777 92.3833 93.2054 92.3833 86.6031C92.3833 81.0833 85.418 72.7481 83.2748 70.3278H83.2744ZM80.4083 90.9362C78.0155 90.9322 76.0772 88.9926 76.0752 86.5998C76.0824 85.4165 77.9451 82.2161 80.4083 78.9114C82.8823 82.209 84.727 85.4094 84.7414 86.5995C84.7414 88.9944 82.8032 90.9361 80.4083 90.9361V90.9362Z" fill="#f2494e"/>
</g>
<defs>
<filter id="filter0_i_278_110" x="0" y="0" width="100" height="104" filterUnits="userSpaceOnUse" color-interpolation-filters="sRGB">
<feFlood flood-opacity="0" result="BackgroundImageFix"/>
<feBlend mode="normal" in="SourceGraphic" in2="BackgroundImageFix" result="shape"/>
<feColorMatrix in="SourceAlpha" type="matrix" values="0 0 0 0 0 0 0 0 0 0 0 0 0 0 0 0 0 0 127 0" result="hardAlpha"/>
<feOffset dy="4"/>
<feGaussianBlur stdDeviation="2"/>
<feComposite in2="hardAlpha" operator="arithmetic" k2="-1" k3="1"/>
<feColorMatrix type="matrix" values="0 0 0 0 0 0 0 0 0 0 0 0 0 0 0 0 0 0 0.25 0"/>
<feBlend mode="normal" in2="shape" result="effect1_innerShadow_278_110"/>
</filter>
</defs>
</svg>
