<svg width="100" height="100" viewBox="0 0 100 100" fill="none" xmlns="http://www.w3.org/2000/svg">
<g filter="url(#filter0_i_278_112)">
<path d="M85.85 80.2188L96.8219 88.5437C99.2094 82.3469 97.4469 75.0719 91.8875 70.8531C87.6125 67.6094 82.175 66.9531 77.4813 68.625L75.8188 67.3656L75.6 66.9531C76.7563 65.3094 77.7594 63.5906 78.6031 61.8156L86.1563 61.6063L87.7031 56.6688L81.6 52.175C81.8969 50.3281 82.0438 48.4594 82.0469 46.5937L88.8188 43.1563L88.1031 38.0312L80.6281 36.5687C80.0031 34.4187 79.1719 32.3125 78.1344 30.2844L82.5906 24.1187L79.6094 19.8875L72.275 22.0187C72.1844 21.9219 72.0938 21.825 72 21.7281C70.8281 20.5156 69.5906 19.4062 68.3 18.3969L69.7094 11.1437L65.225 8.55938L59.6594 13.4062C57.8563 12.6812 56.0063 12.1094 54.1313 11.6906L52.3063 4.53125L47.1469 4.10938L44.175 10.8969C42.6375 10.9906 41.1063 11.1812 39.5875 11.475L35.0438 5.60937L30.1438 7.275L30.1188 14.7437C28.0438 15.8125 26.0469 17.0969 24.1688 18.6062L17.2469 15.4875L13.7031 19.2594L17.2469 25.9813C16.1031 27.6094 15.1125 29.3156 14.275 31.075L6.67188 31.2844L5.12501 36.2219L11.2688 40.7469C10.975 42.5781 10.825 44.4313 10.8188 46.2844L4.00626 49.7406L4.72188 54.8656L12.2031 56.3281C12.65 57.8844 13.2 59.4187 13.8625 60.9156L8.92501 67.0375L11.6781 71.4187L19.3438 69.6281C19.825 70.1937 20.3281 70.75 20.85 71.2906C21.9531 72.4312 23.1094 73.4812 24.3094 74.4406L22.8188 82.125L27.3031 84.7094L33.1563 79.6094C34.8375 80.2844 36.5594 80.825 38.3094 81.2312L40.2219 88.7344L45.3813 89.1562L48.4781 82.0844C50.6219 81.9562 52.7563 81.6344 54.8563 81.1219L59.7813 86.825L64.5875 84.9L64.3281 79.6344L67.3719 81.9437C67.0125 86.9344 69.0688 92.0469 73.3375 95.2906C78.8938 99.5062 86.375 99.2469 91.7031 95.2781L80.7344 86.9562C78.8 85.4906 78.3531 82.7125 79.7594 80.8562C81.1656 79 83.9094 78.7562 85.8406 80.225L85.85 80.2188ZM43.2656 74.175C37.0625 73.475 31.1031 70.675 26.4281 65.8344C15.7375 54.7781 16.0438 37.1875 27.1031 26.5C38.1625 15.8125 55.7594 16 66.4469 27.0562C75.8594 36.7906 76.7375 51.675 69.2688 62.3937L51.075 48.5906C51.4188 43.625 49.3219 38.5594 45.05 35.3187C39.4938 31.1031 32.0125 31.3625 26.6844 35.3312L37.6531 43.6531C39.5844 45.1187 40.0906 47.8219 38.6844 49.6813C37.2781 51.5406 34.4781 51.8563 32.5469 50.3875L21.5781 42.0656C19.1938 48.2625 20.9531 55.5375 26.5125 59.7562C30.7844 62.9937 36.2656 63.5969 40.975 61.9062L55.4031 72.8531C51.4844 74.1906 47.3344 74.6312 43.2688 74.1719L43.2656 74.175Z" fill="#f2494e"/>
</g>
<defs>
<filter id="filter0_i_278_112" x="0" y="0" width="100" height="104" filterUnits="userSpaceOnUse" color-interpolation-filters="sRGB">
<feFlood flood-opacity="0" result="BackgroundImageFix"/>
<feBlend mode="normal" in="SourceGraphic" in2="BackgroundImageFix" result="shape"/>
<feColorMatrix in="SourceAlpha" type="matrix" values="0 0 0 0 0 0 0 0 0 0 0 0 0 0 0 0 0 0 127 0" result="hardAlpha"/>
<feOffset dy="4"/>
<feGaussianBlur stdDeviation="2"/>
<feComposite in2="hardAlpha" operator="arithmetic" k2="-1" k3="1"/>
<feColorMatrix type="matrix" values="0 0 0 0 0 0 0 0 0 0 0 0 0 0 0 0 0 0 0.25 0"/>
<feBlend mode="normal" in2="shape" result="effect1_innerShadow_278_112"/>
</filter>
</defs>
</svg>
