<svg width="100" height="100" viewBox="0 0 100 100" fill="none" xmlns="http://www.w3.org/2000/svg">
<g filter="url(#filter0_i_278_114)">
<path d="M66.6667 37.4999V45.8333H33.3333V37.4999H41.6667V33.3333H16.6667V41.6666H8.33334V8.33325H16.6667V16.6666H50C52.2101 16.6666 54.3298 17.5446 55.8926 19.1074C57.4554 20.6702 58.3333 22.7898 58.3333 24.9999V37.4999H66.6667ZM41.6667 62.4999V74.9999C41.6667 77.2101 42.5447 79.3297 44.1075 80.8925C45.6703 82.4553 47.7899 83.3333 50 83.3333H83.3333V91.6666H91.6667V58.3333H83.3333V66.6666H58.3333V62.4999H66.6667V54.1666H33.3333V62.4999H41.6667Z" fill="#f2494e"/>
</g>
<defs>
<filter id="filter0_i_278_114" x="0" y="0" width="100" height="104" filterUnits="userSpaceOnUse" color-interpolation-filters="sRGB">
<feFlood flood-opacity="0" result="BackgroundImageFix"/>
<feBlend mode="normal" in="SourceGraphic" in2="BackgroundImageFix" result="shape"/>
<feColorMatrix in="SourceAlpha" type="matrix" values="0 0 0 0 0 0 0 0 0 0 0 0 0 0 0 0 0 0 127 0" result="hardAlpha"/>
<feOffset dy="4"/>
<feGaussianBlur stdDeviation="2"/>
<feComposite in2="hardAlpha" operator="arithmetic" k2="-1" k3="1"/>
<feColorMatrix type="matrix" values="0 0 0 0 0 0 0 0 0 0 0 0 0 0 0 0 0 0 0.25 0"/>
<feBlend mode="normal" in2="shape" result="effect1_innerShadow_278_114"/>
</filter>
</defs>
</svg>
