<svg width="34" height="40" viewBox="0 0 34 40" fill="none" xmlns="http://www.w3.org/2000/svg">
<path d="M28.5917 15.6053V11.1123C28.5917 4.9749 23.4029 0 17.0005 0C10.5981 0 5.40934 4.97442 5.40934 11.1123V15.6053C2.36482 15.972 0 18.4648 0 21.4801V34.0736C0 37.3405 2.7741 40 6.18182 40H27.8182C31.2259 40 34 37.3405 34 34.0736V21.4801C34 18.4632 31.6355 15.9723 28.5907 15.6053H28.5917ZM17.0005 5.18569C20.4082 5.18569 23.1823 7.84519 23.1823 11.1121V15.5533H10.8187V11.1121C10.8187 7.84519 13.5928 5.18569 17.0005 5.18569ZM18.5459 27.7356V32.2211C18.5459 33.0397 17.8544 33.7028 17.0005 33.7028C16.1466 33.7028 15.455 33.0397 15.455 32.2211V27.7356C14.5355 27.2226 13.9096 26.278 13.9096 25.1835C13.9096 23.5463 15.2928 22.2203 17.0005 22.2203C18.7082 22.2203 20.0914 23.5463 20.0914 25.1835C20.0914 26.278 19.4655 27.2226 18.5459 27.7356Z" fill="white"/>
</svg>
