<svg width="885" height="904" viewBox="0 0 885 904" fill="none" xmlns="http://www.w3.org/2000/svg">
<path d="M456.696 61.2562C253.766 55.2593 77.9854 202.619 51.4281 395.975C22.3917 607.382 182.205 797.598 378.85 828.064C623.442 865.958 860.683 646.734 839.381 408.908C823.333 229.728 662.978 67.3523 456.696 61.2562Z" fill="#212D38" fill-opacity="0.51"/>
<mask id="mask0_2_5" style="mask-type:luminance" maskUnits="userSpaceOnUse" x="67" y="52" width="384" height="703">
<path d="M450.579 754.281H67.2715V52H450.579L422.079 400.555L450.579 754.281Z" fill="white"/>
</mask>
<g mask="url(#mask0_2_5)">
<path d="M466.605 748.373C474.007 748.798 490.485 743.19 494.178 739.956C518.756 718.434 567.387 681.131 571.758 646.859C572.504 641.005 547.661 630.768 545.037 624.773C530.781 614.399 525.192 611.685 516.48 595.159C490.762 546.371 582.569 481.113 498.431 436.278C436.801 403.438 377.251 415.611 403.402 315.197C429.554 214.784 383.759 14.2283 263.085 65.0048C193.829 94.1456 240.12 192.426 196.437 250.278C154.926 305.253 171.237 360.008 228.773 408.509C286.308 457.009 246.667 478.519 217.137 532.628C181.664 597.624 285.764 629.904 335.094 640.704C374.818 649.401 470.107 698.368 466.605 748.373Z" fill="#D8DEE8"/>
<mask id="mask1_2_5" style="mask-type:luminance" maskUnits="userSpaceOnUse" x="173" y="56" width="399" height="693">
<path d="M466.605 748.373C474.007 748.798 490.485 743.19 494.178 739.956C518.756 718.434 567.387 681.131 571.758 646.859C572.504 641.005 547.661 630.768 545.037 624.773C530.781 614.399 525.192 611.685 516.48 595.159C490.762 546.371 582.569 481.113 498.431 436.278C436.801 403.438 377.251 415.611 403.402 315.197C429.554 214.784 383.759 14.2283 263.085 65.0048C193.829 94.1456 240.12 192.426 196.437 250.278C154.926 305.253 171.237 360.008 228.773 408.509C286.308 457.009 246.667 478.519 217.137 532.628C181.664 597.624 285.764 629.904 335.094 640.704C374.818 649.401 470.107 698.368 466.605 748.373Z" fill="white"/>
</mask>
<g mask="url(#mask1_2_5)">
<path d="M531.516 696.158L532.456 694.892C337.558 549.896 249.739 304.889 297.541 39.4988L295.988 39.218C273.334 164.994 281.6 290.986 319.893 403.573C360.15 521.937 433.328 623.111 531.516 696.158Z" fill="#FCFDFE"/>
<path d="M199.296 557.95C265.148 549.251 368.999 568.21 430.797 600.215L431.521 598.814C369.48 566.683 265.213 547.651 199.09 556.385L199.296 557.95Z" fill="#FCFDFE"/>
<path d="M313.903 383.513C275.057 329.485 209.843 304.082 161.42 292.647L161.058 294.184C209.863 305.709 275.862 331.028 314.216 386.168C314.237 385.912 313.885 384.061 313.903 383.513Z" fill="#FCFDFE"/>
<path d="M286.916 234.024C295.62 157.553 351.481 99.2313 384.004 71.2727L382.976 70.075C350.742 97.7866 295.702 155.182 285.75 230.581C285.607 231.666 286.916 234.024 286.916 234.024Z" fill="#FCFDFE"/>
</g>
</g>
<path d="M500.043 815.822C507.025 813.495 520.165 802.273 522.385 797.934C537.159 769.06 568.33 716.797 559.794 683.585C558.336 677.913 531.671 677.595 527.052 673.03C510.101 668.699 503.952 668.248 489.858 656.207C448.249 620.658 508.988 526.759 414.953 516.312C346.073 508.659 295.618 541.756 282.916 439.548C270.213 337.339 154.439 169.199 61.7692 260.346C8.58528 312.655 87.3138 386.291 68.2413 455.687C50.1173 521.631 85.2375 566.138 156.084 589.736C226.929 613.335 198.258 647.729 190.865 708.475C181.984 781.444 289.824 772.983 339.278 764.826C379.102 758.257 484.936 768.42 500.043 815.822Z" fill="#FE8794"/>
<mask id="mask2_2_5" style="mask-type:luminance" maskUnits="userSpaceOnUse" x="43" y="234" width="519" height="582">
<path d="M500.043 815.822C507.025 813.495 520.165 802.273 522.385 797.934C537.159 769.06 568.33 716.797 559.794 683.585C558.336 677.913 531.671 677.595 527.052 673.03C510.101 668.699 503.952 668.248 489.858 656.207C448.249 620.658 508.988 526.759 414.953 516.312C346.073 508.659 295.618 541.756 282.916 439.548C270.213 337.339 154.439 169.199 61.7692 260.346C8.58528 312.655 87.3138 386.291 68.2413 455.687C50.1173 521.631 85.2375 566.138 156.084 589.736C226.929 613.335 198.258 647.729 190.865 708.475C181.984 781.444 289.824 772.983 339.278 764.826C379.102 758.257 484.936 768.42 500.043 815.822Z" fill="white"/>
</mask>
<g mask="url(#mask2_2_5)">
<path d="M540.759 743.829L541.162 742.316C308.254 680.175 137.424 486.475 84.1928 224.169L82.6583 224.48C107.887 348.794 161.709 461.952 238.307 551.719C318.836 646.093 423.422 712.523 540.759 743.829Z" fill="#FCFDFE"/>
<path d="M183.697 738.38C241.238 706.173 343.965 685.517 412.692 692.338L412.846 690.78C343.849 683.933 240.711 704.674 182.934 737.013L183.697 738.38Z" fill="#FCFDFE"/>
<path d="M495.178 731.107L495.984 729.764C465.218 711.251 444.985 677.883 435.85 630.587C429.15 595.908 428.462 554.688 433.805 508.068L432.25 507.89C426.889 554.667 427.583 596.049 434.312 630.884C443.536 678.635 464.014 712.354 495.178 731.107Z" fill="#FCFDFE"/>
<path d="M227.93 538.555C227.93 538.555 226.265 535.913 224.839 535.012C169.335 499.952 100.108 500.417 51.4839 507.621L51.7136 509.171C101.313 501.822 172.147 500.954 227.93 538.555Z" fill="#FCFDFE"/>
<path d="M146.28 409.474C146.229 409.288 145.623 407.095 145.573 406.909C125.862 333.372 155.891 259.351 175.582 221.717L174.196 220.99C154.777 258.102 125.637 330.782 143.248 403.416C143.637 405.022 146.28 409.474 146.28 409.474Z" fill="#FCFDFE"/>
</g>
<path d="M322.702 599.741L317.262 588.707C321.787 585.316 325.97 581.588 329.756 577.543L339.949 584.355C342.73 586.213 346.489 585.435 348.345 582.617L359.968 564.974C361.828 562.149 361.084 558.345 358.304 556.477L348.01 549.559C350.228 544.405 352.01 539.065 353.323 533.596L365.719 534.369C369.062 534.578 371.953 531.996 372.178 528.601L373.59 507.332C373.817 503.925 371.285 500.988 367.934 500.774L355.49 499.979C354.89 494.429 353.787 488.884 352.209 483.396L363.46 477.723C366.481 476.2 367.726 472.472 366.242 469.395L356.937 450.111C355.446 447.02 351.78 445.752 348.751 447.28L337.466 452.97C334.131 448.324 330.454 444.023 326.46 440.121L333.426 429.449C335.305 426.572 334.543 422.678 331.722 420.752L314.055 408.688C311.224 406.755 307.404 407.529 305.525 410.417L298.567 421.112C293.415 418.793 288.073 416.937 282.606 415.553L283.364 402.72C283.569 399.245 280.977 396.239 277.574 396.007L256.265 394.552C252.854 394.319 249.928 396.953 249.731 400.434L249.011 413.159C243.439 413.762 237.878 414.894 232.38 416.519L226.743 405.083C225.2 401.953 221.471 400.662 218.415 402.203L199.306 411.838C196.25 413.378 195.033 417.163 196.585 420.289L202.21 431.617C197.579 435.067 193.309 438.874 189.448 443.007L179.094 436.049C176.219 434.117 172.376 434.896 170.512 437.789L158.864 455.861C157.003 458.747 157.827 462.645 160.703 464.567L171.01 471.455C168.768 476.752 166.998 482.242 165.709 487.857L153.487 487.076C150.07 486.857 147.163 489.476 146.994 492.921L145.936 514.427C145.767 517.86 148.393 520.814 151.8 521.026L163.901 521.781C164.588 527.442 165.803 533.088 167.508 538.664L156.716 544.105C153.687 545.632 152.489 549.352 154.041 552.412L163.725 571.505C165.27 574.552 168.971 575.785 171.991 574.262L182.751 568.837C186.207 573.485 190.002 577.775 194.115 581.645L187.56 591.719C185.717 594.552 186.521 598.36 189.356 600.224L207.049 611.86C209.873 613.718 213.655 612.935 215.497 610.112L222.1 599.997C227.288 602.233 232.656 604.015 238.144 605.31L237.46 617.406C237.27 620.773 239.835 623.659 243.19 623.854L264.144 625.071C267.491 625.265 270.365 622.699 270.564 619.339L271.281 607.205C276.778 606.549 282.263 605.385 287.681 603.73L293.11 614.661C294.603 617.669 298.242 618.882 301.236 617.372L319.967 607.928C322.962 606.418 324.187 602.753 322.702 599.741ZM315.308 483.1C330.427 514.076 317.988 551.47 287.605 566.789C257.222 582.108 220.134 569.687 204.681 538.878C189.136 507.883 201.364 470.063 232.081 454.575C262.797 439.088 300.097 451.935 315.308 483.1Z" fill="white"/>
<path d="M722.068 601.928L710.18 576.612C720.209 569.032 729.492 560.672 737.9 551.571L760.317 567.442C766.43 571.769 774.732 570.121 778.866 563.76L804.763 523.918C808.911 517.536 807.325 508.827 801.215 504.465L778.578 488.305C783.55 476.599 787.561 464.451 790.54 451.988L817.921 454.198C825.301 454.794 831.729 448.992 832.28 441.233L835.741 392.573C836.296 384.769 830.744 377.94 823.335 377.324L795.814 375.036C794.565 362.276 792.204 349.501 788.786 336.833L813.788 324.226C820.5 320.842 823.317 312.32 820.077 305.186L799.743 260.425C796.481 253.244 788.368 250.173 781.625 253.573L756.508 266.237C749.162 255.395 741.051 245.329 732.226 236.165L747.832 211.812C752.042 205.242 750.398 196.215 744.154 191.649L704.994 163.008C698.713 158.414 690.202 160.045 685.99 166.651L670.396 191.107C658.949 185.528 647.068 181.009 634.898 177.58L636.686 147.89C637.171 139.846 631.415 132.765 623.825 132.081L576.284 127.795C568.669 127.108 562.124 133.094 561.668 141.16L560.005 170.629C547.567 171.791 535.149 174.181 522.869 177.717L510.308 150.966C506.867 143.638 498.535 140.485 491.702 143.93L448.969 165.476C442.136 168.921 439.414 177.648 442.887 184.961L455.463 211.441C445.116 219.239 435.578 227.88 426.955 237.287L403.801 220.758C397.368 216.166 388.773 217.813 384.611 224.438L358.626 265.797C354.477 272.399 356.336 281.445 362.771 286L385.825 302.321C380.833 314.465 376.898 327.068 374.04 339.971L346.742 337.702C339.111 337.067 332.629 342.996 332.269 350.938L330.019 400.458C329.66 408.354 335.535 415.248 343.137 415.862L370.126 418.041C371.676 431.085 374.404 444.105 378.219 456.973L354.2 469.084C347.457 472.484 344.806 480.981 348.277 488.057L369.91 532.163C373.358 539.192 381.592 542.142 388.305 538.758L412.214 526.702C419.904 537.46 428.341 547.406 437.481 556.395L422.934 579.208C418.846 585.621 420.639 594.347 426.933 598.697L466.183 625.822C472.441 630.147 480.823 628.482 484.909 622.105L499.559 599.243C511.053 604.516 522.94 608.754 535.091 611.883L533.535 639.43C533.103 647.091 538.77 653.742 546.191 654.291L592.521 657.716C599.918 658.263 606.284 652.515 606.744 644.874L608.407 617.268C620.567 615.951 632.699 613.475 644.687 609.882L656.589 634.942C659.862 641.834 667.884 644.708 674.509 641.367L715.942 620.477C722.567 617.137 725.311 608.835 722.068 601.928ZM706.986 334.741C740.145 406.446 712.185 491.626 644.813 525.596C577.441 559.565 495.253 529.923 460.953 458.792C426.333 386.997 453.573 300.295 522.091 265.748C590.608 231.201 673.516 262.365 706.986 334.741Z" fill="#6B71F8"/>
<path opacity="0.74" d="M731.514 318.956C692.233 230.217 591.468 190.723 507.48 233.07C423.492 275.418 391.612 381.792 435.134 468.393C477.445 552.586 575.586 586.519 655.391 546.281C735.196 506.043 769.703 405.228 731.514 318.956ZM470.57 450.526C437.953 384.664 462.47 304.257 525.976 272.236C589.482 240.216 665.907 269.728 696.078 336.824C725.608 402.495 699.571 479.685 638.486 510.484C577.401 541.284 502.495 514.99 470.57 450.526Z" fill="white"/>
<path d="M478.315 314.755L443.96 290.309C428.281 314.482 418.821 342.531 416.377 371.647L456.929 374.996C459.169 353.38 466.48 332.627 478.315 314.755Z" fill="white"/>
<path d="M692.244 457.701L724.133 480.441C736.801 458.133 744.534 432.882 746.584 406.697L707.889 403.525C706.498 422.667 701.127 441.171 692.244 457.701Z" fill="white"/>
<path d="M602.097 261.416C620.635 264.87 638.326 272.605 653.814 284.058L676.19 249.056C654.892 233.147 630.356 222.61 604.673 218.303L602.097 261.416Z" fill="white"/>
<path d="M525.976 272.236C527.335 271.551 528.708 270.933 530.079 270.305L511.584 231.076C510.212 231.72 508.843 232.383 507.48 233.07C483.33 245.247 463.43 262.84 448.394 283.814L482.851 308.385C494.061 293.516 508.56 281.018 525.976 272.236Z" fill="white"/>
<path d="M638.486 510.484C621.735 518.931 604.009 523.062 586.447 523.346L584.064 563.228C608.102 563.287 632.444 557.851 655.391 546.281C656.686 545.628 657.968 544.958 659.238 544.274L642.334 508.418C641.061 509.117 639.793 509.825 638.486 510.484Z" fill="white"/>
<path d="M579.057 523.263C558.768 522.341 538.868 516.269 521.145 505.683L499.734 539.134C523.233 553.484 549.722 561.717 576.719 563.041L579.057 523.263Z" fill="white"/>
<path d="M688.47 464.296C678.579 480.38 665.176 494.294 648.723 504.67L665.631 540.637C688.266 527.093 706.7 508.531 720.266 486.922L688.47 464.296Z" fill="white"/>
<path d="M468.915 446.968C459.394 426.303 455.379 404.331 456.356 382.908L415.891 379.591C414.753 408.177 420.367 437.46 433.416 464.867L468.915 446.968Z" fill="white"/>
<path d="M514.757 501.587C497.678 489.96 482.962 473.904 472.395 453.996L436.936 471.874C450.983 498.398 470.622 519.707 493.37 535.043L514.757 501.587Z" fill="white"/>
<path d="M659.927 288.86C673.954 300.598 685.809 315.566 694.383 333.285L729.882 315.386C718.307 290.673 701.879 269.918 682.324 253.868L659.927 288.86Z" fill="white"/>
<path d="M537.144 267.311C555.911 260.095 575.521 257.915 594.519 260.229L597.048 217.209C571.056 214.13 544.203 217.446 518.651 227.971L537.144 267.311Z" fill="white"/>
<path d="M697.602 340.444C705.127 358.515 708.535 377.34 708.241 395.747L747.018 398.949C747.91 373.61 743.488 347.544 733.06 322.566L697.602 340.444Z" fill="white"/>
<path d="M660.873 506.831L652.489 502.057C652.489 502.057 650.874 496.904 650.668 461.571C650.462 426.238 691.126 394.624 703.627 393.893C716.128 393.16 703.326 449.614 703.326 449.614C700.21 448.965 695.679 448.522 690.856 450.101C678.449 454.163 673.271 468.61 668.845 480.958C666.501 487.497 661.696 494.503 660.873 506.831Z" fill="white"/>
<path d="M730.249 720.018C730.249 720.018 731.734 726.045 731.782 728.229C731.829 730.413 707.816 733.457 707.442 731.848C707.068 730.239 711.088 727.311 713.99 726.159C716.893 725.006 725.406 721.869 725.406 721.869L730.249 720.018Z" fill="url(#paint0_linear_2_5)"/>
<path d="M723.911 714.398L725.287 721.931C725.287 721.931 728.235 723.558 730.588 721.931L731.16 713.565L723.911 714.398Z" fill="url(#paint1_linear_2_5)"/>
<path d="M774.043 726.47C774.043 726.47 775.53 732.497 775.577 734.681C775.624 736.865 751.611 739.909 751.237 738.3C750.863 736.691 754.883 733.763 757.785 732.611C760.687 731.458 769.2 728.32 769.2 728.32L774.043 726.47Z" fill="url(#paint2_linear_2_5)"/>
<path d="M767.706 720.85L769.083 728.383C769.083 728.383 772.031 730.01 774.383 728.383L774.955 720.018L767.706 720.85Z" fill="url(#paint3_linear_2_5)"/>
<path d="M712.41 515.788C710.076 521.664 707.743 527.54 705.409 533.416C705.752 565.853 707.447 601.02 711.166 638.475C713.932 666.341 717.54 692.66 721.668 717.305C725.431 716.829 729.194 716.352 732.958 715.876C737.551 704.589 742.683 687.635 741.652 667.299C740.577 646.085 733.94 643.789 732.724 623.493C731.148 597.186 741.592 589.297 744.925 557.235C746.2 544.973 746.446 529.072 743.119 510.071C732.882 511.976 722.646 513.883 712.41 515.788Z" fill="url(#paint4_linear_2_5)"/>
<path opacity="0.3" d="M743.119 510.071C737.591 511.1 732.062 512.129 726.534 513.159C717.898 531.441 716.552 549.857 718.958 557.762C722.361 568.947 729.243 572.065 729.796 583.524C730.343 594.862 723.92 598.329 720.764 611.998C718.579 621.461 720.03 629.885 723.022 646.347C729.049 679.506 737.933 689.081 732.054 700.583C730.384 703.851 727.222 707.837 720.672 711.212C721.002 713.248 721.33 715.291 721.667 717.305C725.431 716.83 729.194 716.352 732.958 715.877C737.551 704.589 742.683 687.636 741.652 667.299C740.576 646.085 733.94 643.789 732.724 623.493C731.148 597.187 741.592 589.297 744.925 557.235C746.2 544.973 746.446 529.072 743.119 510.071Z" fill="url(#paint5_linear_2_5)"/>
<path d="M728.212 524.762C735.727 552.882 742.792 583.057 748.99 615.161C756.474 653.925 761.749 690.612 765.403 724.775C769.558 724.561 773.714 724.345 777.869 724.13C791.617 690.475 790.859 668.465 787.36 654.376C786.012 648.948 782.683 638.357 780.829 622.28C779.537 611.072 779.568 602.462 779.64 592.108C779.797 569.408 781.784 564.295 780.745 547.025C779.771 530.816 779.182 522.622 774.183 518.213C761.014 506.597 730.523 523.455 728.212 524.762Z" fill="url(#paint6_linear_2_5)"/>
<path d="M702.699 539.457C698.199 533.18 702.679 526.418 702.814 513.829C702.967 499.561 697.326 497.64 690.054 474.599C685.218 459.275 680.576 444.564 683.28 426.691C684.576 418.125 686.773 403.597 698.015 395.763C703.816 391.721 712.154 391.41 728.592 390.954C748.92 390.39 759.084 390.108 766.951 393.48C768.103 393.974 792.068 404.634 795.28 424.883C798.55 445.493 776.205 450.091 775.41 477.989C775.052 490.512 778.99 509.414 781.543 521.674C783.996 533.445 785.271 536.408 783.215 540.196C778.258 549.327 760.757 548.241 725.754 546.071C712.024 545.22 706.058 544.142 702.699 539.457Z" fill="white"/>
<path opacity="0.3" d="M750.571 475.503C752.465 480.776 758.051 484.38 762.764 497.198C763.782 499.965 771.029 519.672 764.119 525.221C760.127 528.425 755.904 523.299 745.603 523.412C727.754 523.606 720.493 539.215 708.571 536.068C706.502 535.521 703.726 534.226 700.796 530.973C700.518 534.139 700.826 536.844 702.7 539.458C706.058 544.142 712.024 545.22 725.754 546.072C760.757 548.242 778.258 549.328 783.215 540.197C785.271 536.408 783.996 533.446 781.544 521.675C778.99 509.415 775.053 490.513 775.41 477.989C776.205 450.092 798.55 445.494 795.28 424.884C794.407 419.375 791.973 414.601 788.904 410.523C761.204 424.412 744.615 458.934 750.571 475.503Z" fill="url(#paint7_linear_2_5)"/>
<path d="M767.055 439.572C763.069 431.742 761.799 424.671 761.281 420.796C760.234 412.964 759.919 403.567 762.287 392.014C763.034 392.206 764.101 392.491 765.37 392.87C768.222 393.722 779.423 397.234 792.09 406.317C797.093 409.905 805.9 416.496 813.546 427.099C820.951 437.368 834.724 457.583 826.442 476.633C819.593 492.388 799.867 502.07 777.519 500.734C781.014 496.154 784.508 491.574 788.003 486.994C793.062 481.239 793.801 476.716 793.71 473.88C793.322 461.703 776.958 459.024 767.055 439.572Z" fill="white"/>
<path d="M726.396 365.264C726.396 365.264 727.539 374.366 730.921 380.98C733.976 386.957 747.756 389.764 750.596 390.925C753.437 392.086 745.915 396.749 738.1 398.174C730.286 399.598 707.645 399.612 703.35 396.948C699.055 394.285 706.388 393.923 711.846 391.406C717.303 388.89 719.673 377.623 718.281 372.708C716.888 367.791 726.396 365.264 726.396 365.264Z" fill="url(#paint8_linear_2_5)"/>
<path d="M716.76 362.911C712.315 359.19 711.702 358.763 711.14 357.398C708.889 351.921 712.63 343.874 718.192 341.52C718.482 341.398 722.215 339.863 723.811 341.41C725.166 342.723 723.495 344.821 724.582 347.475C725.6 349.959 727.824 349.973 732.185 352.988C735.777 355.47 738.009 357.014 738.685 359.383C740.079 364.267 734.651 371.943 729.32 372.173C727.403 372.256 726.805 371.321 716.76 362.911Z" fill="url(#paint9_linear_2_5)"/>
<path d="M728.861 372.982C728.861 372.982 724.879 378.296 718.075 377.191C711.982 376.201 712.408 362.356 716.605 359.813C718.005 358.965 720.66 358.813 722.73 359.614C723.953 360.088 724.328 360.651 726.34 361.386C728.197 362.064 728.755 361.904 729.283 362.444C729.944 363.119 730.328 364.654 728.74 368.561C730.024 367.488 731.472 367.169 732.421 367.734C732.572 367.825 732.966 368.152 733.161 368.609C733.866 370.263 732.24 372.132 728.861 372.982Z" fill="url(#paint10_linear_2_5)"/>
<path d="M761.858 548.678C761.858 548.678 703.319 551.996 700.707 539.234C698.096 526.471 700.675 522.679 700.707 511.922C700.74 501.166 681.016 462.835 683.18 447.433C685.344 432.03 682.538 428.795 696.311 431.689C710.084 434.583 749.747 429.116 753.697 435.093C757.646 441.071 771.55 466.234 777.416 470.828C777.416 470.828 783.027 525.705 785.577 533.618C788.128 541.531 779.711 551.741 761.858 548.678Z" fill="url(#paint11_linear_2_5)"/>
<path d="M751.808 390.609C751.808 390.609 741.794 405.74 739.044 435.349C747.065 436.88 747.32 437.473 748.595 431.689C749.871 425.904 755.733 392.637 760.666 391.616C760.666 391.616 757.419 389.402 751.808 390.609Z" fill="url(#paint12_linear_2_5)"/>
<path d="M702.772 392.808C702.772 392.808 692.825 405.74 690.075 435.349C698.096 436.88 698.351 437.473 699.626 431.689C700.902 425.904 706.764 392.637 711.697 391.616C711.697 391.616 708.383 391.601 702.772 392.808Z" fill="url(#paint13_linear_2_5)"/>
<path d="M700.707 444.027C700.707 444.027 692.655 460.023 715.269 459.682C737.883 459.342 734.519 441.815 734.519 441.815L700.707 444.027Z" fill="url(#paint14_linear_2_5)"/>
<path d="M518.54 463.036L560.714 431.074L554.142 378.541L486.121 354.224C481.876 352.432 484.354 343.14 488.543 341.219C508.967 331.857 533.194 330.982 555.427 340.963C595.46 358.935 613.892 405.956 596.8 446.399C579.405 487.561 531.973 506.848 490.814 489.478C469.061 480.298 451.714 466.035 444.348 445.413C442.795 441.065 448.829 433.616 453.08 435.411L518.54 463.036Z" fill="url(#paint15_linear_2_5)"/>
<path d="M585.782 419.568L824.31 510.297C839.719 516.371 847.109 533.95 840.675 549.222C834.242 564.489 816.513 571.466 801.412 564.672L569.918 457.216L585.782 419.568Z" fill="url(#paint16_linear_2_5)"/>
<path d="M517.062 467.206L559.235 435.244L552.664 382.712L487.205 355.087C482.96 353.295 482.876 347.31 487.065 345.39C507.489 336.027 531.716 335.152 553.949 345.133C593.982 363.106 612.414 410.126 595.322 450.569C577.927 491.731 530.495 511.018 489.337 493.648C467.583 484.468 451.937 466.884 444.571 446.262C443.019 441.914 447.351 437.786 451.602 439.581L517.062 467.206Z" fill="url(#paint17_linear_2_5)"/>
<path d="M584.303 423.738L822.832 514.467C838.241 520.541 845.631 538.12 839.196 553.392C832.763 568.66 815.034 575.636 799.933 568.843L568.439 461.387L584.303 423.738Z" fill="url(#paint18_linear_2_5)"/>
<path opacity="0.3" d="M583.238 445.374C580.669 451.471 583.525 458.497 589.618 461.068C595.71 463.639 602.731 460.781 605.3 454.684C607.869 448.587 605.013 441.561 598.921 438.99C592.828 436.419 585.807 439.277 583.238 445.374Z" fill="url(#paint19_linear_2_5)"/>
<path opacity="0.3" d="M607.053 463.116L804.051 546.252C807.655 547.773 811.809 546.082 813.328 542.476C814.848 538.869 813.158 534.713 809.555 533.192L612.556 450.055L607.053 463.116Z" fill="url(#paint20_linear_2_5)"/>
<path d="M789.137 494.654C789.137 494.654 787.695 490.834 784.981 490.171C782.267 489.509 776.906 490.332 776.906 490.332C776.619 491.039 776.346 492.046 776.788 492.856C777.576 494.298 779.845 493.674 782.52 494.58C786.863 496.052 788.664 500.631 789.338 499.74C789.853 499.057 789.137 494.654 789.137 494.654Z" fill="url(#paint21_linear_2_5)"/>
<path d="M664.214 506.902C664.214 506.902 655.357 509.226 651.284 506.638C647.211 504.051 645.415 495.014 645.415 495.014C645.415 495.014 649.952 493.949 652.954 497.912C655.955 501.875 666.013 502.945 664.214 506.902Z" fill="url(#paint22_linear_2_5)"/>
<path d="M317.741 216.161C317.741 281.197 265.08 336.329 197.893 339.402C128.114 342.595 69.5406 288.811 69.5406 219.159C69.5406 149.508 128.114 94.3088 197.893 95.8155C265.08 97.2661 317.741 151.125 317.741 216.161Z" fill="url(#paint23_linear_2_5)"/>
<path d="M325.542 216.161C325.542 281.197 272.881 336.328 205.695 339.402C135.916 342.594 77.3423 288.81 77.3423 219.159C77.3423 149.507 135.916 94.3084 205.695 95.8148C272.881 97.2657 325.542 151.125 325.542 216.161Z" fill="url(#paint24_linear_2_5)"/>
<path d="M318.126 216.251C318.126 277.53 268.452 329.379 205.202 332.145C139.66 335.012 84.7582 284.429 84.7582 219.07C84.7582 153.71 139.66 101.8 205.202 103.084C268.452 104.323 318.126 154.972 318.126 216.251Z" fill="white"/>
<g opacity="0.3">
<path opacity="0.3" d="M151.614 165.322C147.488 151.863 147.677 131.42 167.798 101.218C115.891 116.182 77.342 163.289 77.342 219.64C77.342 289.291 135.916 343.075 205.695 339.883C231.424 338.706 254.98 329.917 274.229 315.971C273.633 297.395 269.595 277.062 258.239 258.307C227.015 206.739 164.561 207.551 151.614 165.322Z" fill="url(#paint25_linear_2_5)"/>
</g>
<path d="M278.141 237.221C272.958 232.812 252.228 228.404 252.228 228.404L235.385 245.26H181.228C162.398 239.641 147.317 235.108 128.488 229.49C127.929 229.339 126.355 229.003 125.197 229.691C124.259 230.249 123.988 230.781 123.988 232.111L123.921 272.554C123.921 273.896 125.029 274.974 126.37 274.936L134.974 274.694C134.974 274.694 135.622 254.596 155.056 254.596C174.49 254.596 173.454 274.175 173.454 274.175H232.146C232.146 274.175 231.758 254.596 251.71 254.596C271.662 254.596 272.181 274.823 272.181 274.823H278.67C280.742 272.395 285.809 265.78 286.174 256.411C286.273 253.856 286.409 248.678 283.394 243.37C282.92 242.534 281.351 239.951 278.141 237.221Z" fill="url(#paint26_linear_2_5)"/>
<path d="M135.293 224.628C135.293 224.628 175.264 206.102 201.436 206.361V238.041H182.482L135.293 224.628Z" fill="url(#paint27_linear_2_5)"/>
<path d="M208.954 206.361C208.954 206.361 227.87 205.151 245.491 225.378L231.641 238.041H208.695C208.695 238.041 208.695 206.102 208.954 206.361Z" fill="url(#paint28_linear_2_5)"/>
<path d="M155.006 287.358C162.066 287.358 167.79 281.63 167.79 274.564C167.79 267.498 162.066 261.771 155.006 261.771C147.946 261.771 142.223 267.498 142.223 274.564C142.223 281.63 147.946 287.358 155.006 287.358Z" fill="url(#paint29_linear_2_5)"/>
<path d="M251.709 287.358C258.769 287.358 264.492 281.63 264.492 274.564C264.492 267.498 258.769 261.771 251.709 261.771C244.649 261.771 238.925 267.498 238.925 274.564C238.925 281.63 244.649 287.358 251.709 287.358Z" fill="url(#paint30_linear_2_5)"/>
<path d="M151.596 138.965H149.601C144.301 138.965 138.104 141.838 138.104 147.142H148.65C151.642 147.142 154.066 149.569 154.066 152.562V155.842C154.066 158.809 151.663 161.214 148.698 161.214H140.955C140.955 164.68 145.092 167.49 148.556 167.49H152.166C156.069 167.49 161.602 164.745 165.329 161.151H236.172C238.575 165.616 241.81 168.916 246.701 168.916C246.701 168.916 260.477 168.346 260.477 159.933L251.509 160.918C248.581 161.239 245.945 159.128 245.617 156.198L245.115 151.716C244.777 148.7 246.942 145.979 249.954 145.631L258.292 144.67C257.446 141.704 248.696 138.774 243.281 140.771L229.884 146.001L229.91 146.064H164.345C161.28 142.472 156.926 138.965 151.596 138.965Z" fill="url(#paint31_linear_2_5)"/>
<path d="M209.092 178.488V179.345H174.436L166.852 177.264L155.64 179.753L155.885 183.792L167.26 185.914L174.436 184.609H209.092V184.731C209.092 186.015 210.133 187.057 211.416 187.057H237.103C238.386 187.057 239.427 186.015 239.427 184.731V178.488C239.427 177.203 238.386 176.162 237.103 176.162H211.416C210.133 176.162 209.092 177.203 209.092 178.488Z" fill="url(#paint32_linear_2_5)"/>
<path d="M117.394 726.723L127.178 739.337L219.519 752.006L399.511 807.724L490.795 775.754L431.111 714.326L127.407 651.052L99.3724 683.658L117.394 726.723Z" fill="url(#paint33_linear_2_5)"/>
<path d="M487.18 824.838C486.68 825.059 485.668 825.45 485.668 825.45L456.616 837.784L441.708 831.712L413.674 811.421V767.333L415.076 748.946L447.746 734.227C464.116 727.002 486.122 740.95 496.896 765.389C507.659 789.818 503.56 817.614 487.18 824.838Z" fill="url(#paint34_linear_2_5)"/>
<path d="M200.959 761.325L174.642 772.704L142.342 749.428L138.838 717.734L143.283 696.051L166.021 688.265C166.672 687.995 167.333 687.784 167.994 687.584L168.154 687.534L168.164 687.544C181.62 683.766 198.07 694.909 206.15 713.957C214.831 734.387 214.876 754.882 200.959 761.325Z" fill="url(#paint35_linear_2_5)"/>
<path d="M454.664 838.714C471.284 831.377 475.894 805.323 464.961 780.52C454.029 755.718 431.693 741.561 415.073 748.898C398.453 756.235 393.843 782.29 404.775 807.092C415.708 831.894 438.044 846.052 454.664 838.714Z" fill="#D8DEE8"/>
<path d="M449.276 822.851C459.543 818.318 462.391 802.225 455.638 786.904C448.884 771.584 435.087 762.838 424.821 767.371C414.555 771.903 411.707 787.997 418.46 803.318C425.213 818.638 439.01 827.383 449.276 822.851Z" fill="white"/>
<path d="M173.582 773.203C188.273 767.451 193.428 745.512 185.096 724.202C176.764 702.892 158.101 690.28 143.41 696.033C128.719 701.786 123.563 723.725 131.895 745.035C140.227 766.345 158.891 778.956 173.582 773.203Z" fill="#D8DEE8"/>
<path d="M169.657 759.528C178.732 755.974 181.916 742.422 176.77 729.259C171.623 716.095 160.094 708.305 151.019 711.858C141.945 715.412 138.76 728.964 143.907 742.127C149.053 755.291 160.582 763.081 169.657 759.528Z" fill="white"/>
<path d="M509.04 822.738C499.581 823.063 490.928 823.239 484.32 823.335C477.276 823.438 471.13 818.521 469.736 811.61C467.665 801.347 464.565 793.254 461.933 787.497C459.38 781.936 441.357 742.628 412.422 740.283C408.377 739.952 403.481 739.752 399.136 742.637C383.878 752.758 393.158 788.88 393.158 788.88L399.406 807.417L196.622 756.924C192.566 755.914 189.233 753.037 187.644 749.168C184.101 740.536 177.514 724.706 172.629 714.231C165.62 699.201 153.105 684.672 140.59 684.672C128.075 684.672 125.071 688.68 122.568 697.197C120.065 705.714 126.573 731.766 126.573 739.281C126.573 739.281 105.297 722.999 100.04 717.738C88.3156 706.004 88.8864 690.774 88.0254 682.167C84.7014 648.86 98.758 620.595 107.549 612.026C118.913 600.951 134.292 594.922 147.658 586.375C158.922 577.046 176.684 566.014 198.871 555.683H198.881C204.778 554.501 211.136 553.459 218.015 552.577C264.361 546.655 326.818 592.507 326.818 592.507C326.818 592.507 433.448 662.126 497.857 767.667C504.435 778.439 514.807 802.568 509.04 822.738Z" fill="#BC0505"/>
<path opacity="0.3" d="M202.542 705.596C192.741 681.075 166.279 671.267 142.758 661.458C124.136 653.611 126.096 623.205 110.415 609.474C110.405 609.465 110.395 609.458 110.385 609.45C109.418 610.282 108.466 611.132 107.55 612.026C98.7584 620.595 84.7018 648.86 88.0258 682.167C88.8868 690.774 88.3163 706.004 100.04 717.738C105.297 722.998 126.573 739.281 126.573 739.281C126.573 731.766 120.065 705.714 122.568 697.196C125.071 688.679 128.075 684.671 140.59 684.671C153.106 684.671 165.621 699.2 172.63 714.23C177.514 724.706 184.102 740.536 187.645 749.168C189.233 753.037 192.567 755.914 196.623 756.924L348.817 794.82C307.832 768.964 271.344 736.23 219.204 731.097C211.363 730.117 206.462 715.404 202.542 705.596Z" fill="#BC0505"/>
<path d="M676.245 702.708V761.796C676.245 770.106 671.391 777.65 663.827 781.079C639.059 792.304 583.703 816.382 558.1 819.441C543.453 821.195 525.08 822.177 509.04 822.738C514.807 802.567 504.435 778.439 497.857 767.668C433.448 662.126 326.818 592.507 326.818 592.507C326.818 592.507 264.361 546.655 218.015 552.577C211.136 553.459 204.778 554.501 198.881 555.684C237.138 537.868 288.531 522.137 342.337 520.844C390.015 519.702 411.411 526.195 444.461 537.377C465.537 544.511 487.755 557.567 518.552 574.451C543.032 587.868 568.904 608.81 602.154 625.053C602.154 625.053 658.223 655.113 667.234 672.648C676.245 690.183 676.245 702.708 676.245 702.708Z" fill="#BC0505"/>
<path d="M262.339 608.098L263.1 650.383C237.749 641.926 202.225 630.543 189.65 627.387C172.299 623.048 145.927 611.024 145.927 611.024C157.982 600.533 169.065 593.94 176.634 589.982C208.503 573.299 248.182 566.515 273.052 575.553C265.903 584.842 262.129 596.205 262.339 608.098Z" fill="url(#paint36_linear_2_5)"/>
<path d="M400.237 690.513C400.237 690.513 303.459 664.461 285.767 658.119C282.323 656.886 277.247 655.133 271.16 653.079L270.349 607.948C270.158 597.187 273.823 586.936 280.711 578.8C284.536 580.553 289.832 583.098 295.78 586.305C298.513 587.788 306.463 592.016 315.714 598.339C326.927 605.994 336.179 614.141 351.848 627.387C375.547 647.427 405.243 683.84 405.243 686.175C405.243 688.509 406.916 690.513 400.237 690.513Z" fill="url(#paint37_linear_2_5)"/>
<path opacity="0.3" d="M197.53 580.846C190.36 583.421 183.324 586.48 176.634 589.982C169.065 593.94 157.981 600.533 145.927 611.024C145.927 611.024 172.299 623.049 189.65 627.387C202.225 630.543 237.749 641.926 263.1 650.383L262.529 618.672C245.067 613.792 227.836 607.55 212.032 595.8C206.231 591.653 201.275 586.512 197.53 580.846Z" fill="url(#paint38_linear_2_5)"/>
<path opacity="0.3" d="M325.17 637.884C307.877 629.712 289.201 625.688 270.58 620.84L271.159 653.079C277.247 655.133 282.323 656.886 285.767 658.119C296.93 662.121 339.575 673.968 369.533 682.169C359.308 662.441 343.513 646.664 325.17 637.884Z" fill="url(#paint39_linear_2_5)"/>
<path d="M371.072 694.732C369.159 696.145 365.966 694.822 365.114 694.441L353.77 683.089L329.26 681.435C328.069 681.355 326.958 680.914 326.066 680.213C325.166 679.502 324.475 678.539 324.104 677.397C323.443 675.323 323.974 673.069 325.496 671.516C329.891 667.027 339.573 658.369 348.844 658.369C361.36 658.369 364.113 672.087 364.113 672.087C364.133 672.177 364.153 672.267 364.173 672.357C364.221 672.596 364.258 672.835 364.287 673.072C364.619 675.872 365.694 678.576 367.777 680.474C368.785 681.393 369.738 682.526 370.501 683.92C372.223 687.056 373.695 692.798 371.072 694.732Z" fill="url(#paint40_linear_2_5)"/>
<path d="M485.227 560.608C520.42 581.978 555.613 603.348 590.807 624.718C590.807 624.718 524.342 660.423 428.225 678.792C416.577 667.118 403.954 655.12 390.312 642.974C376.531 630.705 363.019 619.449 349.952 609.145C369.426 598.571 393.031 587.528 420.574 577.982C444.1 569.83 465.951 564.346 485.227 560.608Z" fill="url(#paint41_linear_2_5)"/>
<path opacity="0.3" d="M485.227 560.608C474.104 562.765 462.118 565.508 449.453 569.005C477.48 594.261 501.522 624.939 499.277 661.038C555.554 643.652 590.807 624.718 590.807 624.718C555.613 603.348 520.42 581.978 485.227 560.608Z" fill="url(#paint42_linear_2_5)"/>
<path d="M452.471 713.479C459.649 709.776 482.73 699.058 509.04 706.716C522.634 710.672 548.418 722.832 550.341 741.535C550.529 743.373 550.453 744.933 550.341 746.044C550.341 746.044 493.271 752.056 482.007 748.048C470.743 744.04 452.471 717.237 452.471 713.479Z" fill="white"/>
<path d="M660.893 707.834C658.207 703.913 653.093 695.309 651.965 683.169C650.961 672.357 653.592 663.846 655.284 659.483C657.984 661.685 661.835 664.113 664.914 668.208C665.887 669.502 668.69 672.436 669.922 677.312C671.394 683.133 671.101 691.253 669.251 696.195C666.942 702.365 662.963 706.129 660.893 707.834Z" fill="white"/>
<path d="M658.223 735.664V745.594L577.624 775.754V765.834L658.223 735.664Z" fill="url(#paint43_linear_2_5)"/>
<path d="M658.223 752.006V761.646L577.624 791.806V782.177L658.223 752.006Z" fill="url(#paint44_linear_2_5)"/>
<path d="M271.999 762.828C271.245 762.828 270.596 762.262 270.508 761.496L263.073 696.242C262.446 691.4 262.107 686.451 262.069 681.555C262.013 674.189 262.634 666.764 263.914 659.487L264 658.7C264.094 657.875 264.834 657.284 265.662 657.377C266.486 657.47 267.078 658.215 266.984 659.04L266.885 659.917C265.623 667.106 265.018 674.348 265.073 681.533C265.11 686.307 265.44 691.134 266.055 695.878L273.492 761.155C273.586 761.98 272.995 762.724 272.17 762.819C272.113 762.825 272.055 762.828 271.999 762.828Z" fill="url(#paint45_linear_2_5)"/>
<defs>
<linearGradient id="paint0_linear_2_5" x1="699.543" y1="656.222" x2="730.749" y2="768.748" gradientUnits="userSpaceOnUse">
<stop stop-color="#311944"/>
<stop offset="1" stop-color="#893976"/>
</linearGradient>
<linearGradient id="paint1_linear_2_5" x1="727.276" y1="735.787" x2="727.728" y2="697.823" gradientUnits="userSpaceOnUse">
<stop stop-color="#FFC444"/>
<stop offset="0.9964" stop-color="#F36F56"/>
</linearGradient>
<linearGradient id="paint2_linear_2_5" x1="738.555" y1="645.402" x2="769.762" y2="757.929" gradientUnits="userSpaceOnUse">
<stop stop-color="#311944"/>
<stop offset="1" stop-color="#893976"/>
</linearGradient>
<linearGradient id="paint3_linear_2_5" x1="771.142" y1="736.31" x2="771.594" y2="698.345" gradientUnits="userSpaceOnUse">
<stop stop-color="#FFC444"/>
<stop offset="0.9964" stop-color="#F36F56"/>
</linearGradient>
<linearGradient id="paint4_linear_2_5" x1="728.984" y1="420.245" x2="716.722" y2="847.015" gradientUnits="userSpaceOnUse">
<stop offset="0.0036" stop-color="#6165D7"/>
<stop offset="1" stop-color="#AA80F9"/>
</linearGradient>
<linearGradient id="paint5_linear_2_5" x1="705.409" y1="613.688" x2="745.799" y2="613.688" gradientUnits="userSpaceOnUse">
<stop offset="0.0036" stop-color="#6165D7"/>
<stop offset="1" stop-color="#AA80F9"/>
</linearGradient>
<linearGradient id="paint6_linear_2_5" x1="764.593" y1="399.896" x2="752.331" y2="826.667" gradientUnits="userSpaceOnUse">
<stop offset="0.0036" stop-color="#6165D7"/>
<stop offset="1" stop-color="#AA80F9"/>
</linearGradient>
<linearGradient id="paint7_linear_2_5" x1="851.441" y1="626.744" x2="714.457" y2="430.238" gradientUnits="userSpaceOnUse">
<stop stop-color="#AA80F9"/>
<stop offset="0.9964" stop-color="#6165D7"/>
</linearGradient>
<linearGradient id="paint8_linear_2_5" x1="714.829" y1="410.526" x2="741.471" y2="371.367" gradientUnits="userSpaceOnUse">
<stop stop-color="#FFC444"/>
<stop offset="0.9964" stop-color="#F36F56"/>
</linearGradient>
<linearGradient id="paint9_linear_2_5" x1="739.496" y1="395.425" x2="719.51" y2="344.704" gradientUnits="userSpaceOnUse">
<stop stop-color="#444B8C"/>
<stop offset="0.9964" stop-color="#3E4177"/>
</linearGradient>
<linearGradient id="paint10_linear_2_5" x1="697.763" y1="380.51" x2="740.619" y2="357.186" gradientUnits="userSpaceOnUse">
<stop stop-color="#FFC444"/>
<stop offset="0.9964" stop-color="#F36F56"/>
</linearGradient>
<linearGradient id="paint11_linear_2_5" x1="737.217" y1="399.109" x2="724.956" y2="825.879" gradientUnits="userSpaceOnUse">
<stop offset="0.0036" stop-color="#6165D7"/>
<stop offset="1" stop-color="#AA80F9"/>
</linearGradient>
<linearGradient id="paint12_linear_2_5" x1="751.023" y1="372.755" x2="746.494" y2="530.394" gradientUnits="userSpaceOnUse">
<stop offset="0.0036" stop-color="#6165D7"/>
<stop offset="1" stop-color="#AA80F9"/>
</linearGradient>
<linearGradient id="paint13_linear_2_5" x1="702.007" y1="374.42" x2="697.596" y2="527.942" gradientUnits="userSpaceOnUse">
<stop offset="0.0036" stop-color="#6165D7"/>
<stop offset="1" stop-color="#AA80F9"/>
</linearGradient>
<linearGradient id="paint14_linear_2_5" x1="717.596" y1="474.687" x2="716.574" y2="426.956" gradientUnits="userSpaceOnUse">
<stop offset="0.0036" stop-color="#6165D7"/>
<stop offset="1" stop-color="#AA80F9"/>
</linearGradient>
<linearGradient id="paint15_linear_2_5" x1="533.344" y1="366.862" x2="483.039" y2="704.987" gradientUnits="userSpaceOnUse">
<stop stop-color="#40447E"/>
<stop offset="0.9964" stop-color="#3C3B6B"/>
</linearGradient>
<linearGradient id="paint16_linear_2_5" x1="721.858" y1="394.907" x2="671.549" y2="733.061" gradientUnits="userSpaceOnUse">
<stop stop-color="#40447E"/>
<stop offset="0.9964" stop-color="#3C3B6B"/>
</linearGradient>
<linearGradient id="paint17_linear_2_5" x1="532.403" y1="371.112" x2="482.098" y2="709.238" gradientUnits="userSpaceOnUse">
<stop stop-color="#FF9085"/>
<stop offset="1" stop-color="#FB6FBB"/>
</linearGradient>
<linearGradient id="paint18_linear_2_5" x1="720.38" y1="399.077" x2="670.071" y2="737.231" gradientUnits="userSpaceOnUse">
<stop stop-color="#FF9085"/>
<stop offset="1" stop-color="#FB6FBB"/>
</linearGradient>
<linearGradient id="paint19_linear_2_5" x1="572.278" y1="510.052" x2="594.276" y2="450.104" gradientUnits="userSpaceOnUse">
<stop stop-color="#FF9085"/>
<stop offset="0.033" stop-color="#FF8F87"/>
<stop offset="1" stop-color="#FB6FBB"/>
</linearGradient>
<linearGradient id="paint20_linear_2_5" x1="689.12" y1="560.32" x2="711.476" y2="499.395" gradientUnits="userSpaceOnUse">
<stop stop-color="#FF9085"/>
<stop offset="0.033" stop-color="#FF8F87"/>
<stop offset="1" stop-color="#FB6FBB"/>
</linearGradient>
<linearGradient id="paint21_linear_2_5" x1="778.605" y1="493.217" x2="806.739" y2="499.19" gradientUnits="userSpaceOnUse">
<stop stop-color="#FFC444"/>
<stop offset="0.9964" stop-color="#F36F56"/>
</linearGradient>
<linearGradient id="paint22_linear_2_5" x1="648.5" y1="498.338" x2="670.418" y2="515.877" gradientUnits="userSpaceOnUse">
<stop stop-color="#FFC444"/>
<stop offset="0.4726" stop-color="#F99C4D"/>
<stop offset="0.9964" stop-color="#F36F56"/>
</linearGradient>
<linearGradient id="paint23_linear_2_5" x1="-42.3785" y1="669.019" x2="145.032" y2="311.036" gradientUnits="userSpaceOnUse">
<stop stop-color="#AA80F9"/>
<stop offset="0.9964" stop-color="#6165D7"/>
</linearGradient>
<linearGradient id="paint24_linear_2_5" x1="272.895" y1="-102.244" x2="171.017" y2="352.965" gradientUnits="userSpaceOnUse">
<stop offset="0.0036" stop-color="#E38DDD"/>
<stop offset="1" stop-color="#9571F6"/>
</linearGradient>
<linearGradient id="paint25_linear_2_5" x1="77.342" y1="220.618" x2="274.229" y2="220.618" gradientUnits="userSpaceOnUse">
<stop stop-color="#AA80F9"/>
<stop offset="0.9964" stop-color="#6165D7"/>
</linearGradient>
<linearGradient id="paint26_linear_2_5" x1="205.067" y1="118.487" x2="205.067" y2="649.155" gradientUnits="userSpaceOnUse">
<stop offset="0.0036" stop-color="#E38DDD"/>
<stop offset="1" stop-color="#9571F6"/>
</linearGradient>
<linearGradient id="paint27_linear_2_5" x1="168.364" y1="118.487" x2="168.364" y2="649.153" gradientUnits="userSpaceOnUse">
<stop offset="0.0036" stop-color="#E38DDD"/>
<stop offset="1" stop-color="#9571F6"/>
</linearGradient>
<linearGradient id="paint28_linear_2_5" x1="227.093" y1="118.487" x2="227.093" y2="649.152" gradientUnits="userSpaceOnUse">
<stop offset="0.0036" stop-color="#E38DDD"/>
<stop offset="1" stop-color="#9571F6"/>
</linearGradient>
<linearGradient id="paint29_linear_2_5" x1="155.006" y1="118.487" x2="155.006" y2="649.153" gradientUnits="userSpaceOnUse">
<stop offset="0.0036" stop-color="#E38DDD"/>
<stop offset="1" stop-color="#9571F6"/>
</linearGradient>
<linearGradient id="paint30_linear_2_5" x1="251.709" y1="118.487" x2="251.709" y2="649.153" gradientUnits="userSpaceOnUse">
<stop offset="0.0036" stop-color="#E38DDD"/>
<stop offset="1" stop-color="#9571F6"/>
</linearGradient>
<linearGradient id="paint31_linear_2_5" x1="199.291" y1="122.26" x2="199.291" y2="607.958" gradientUnits="userSpaceOnUse">
<stop offset="0.0036" stop-color="#E38DDD"/>
<stop offset="1" stop-color="#9571F6"/>
</linearGradient>
<linearGradient id="paint32_linear_2_5" x1="197.533" y1="122.26" x2="197.533" y2="607.956" gradientUnits="userSpaceOnUse">
<stop offset="0.0036" stop-color="#E38DDD"/>
<stop offset="1" stop-color="#9571F6"/>
</linearGradient>
<linearGradient id="paint33_linear_2_5" x1="214.831" y1="1002.78" x2="287.887" y2="754.581" gradientUnits="userSpaceOnUse">
<stop stop-color="#311944"/>
<stop offset="1" stop-color="#893976"/>
</linearGradient>
<linearGradient id="paint34_linear_2_5" x1="413.674" y1="785.053" x2="502.871" y2="785.053" gradientUnits="userSpaceOnUse">
<stop stop-color="#444B8C"/>
<stop offset="0.9964" stop-color="#3E4177"/>
</linearGradient>
<linearGradient id="paint35_linear_2_5" x1="138.838" y1="729.758" x2="212.139" y2="729.758" gradientUnits="userSpaceOnUse">
<stop stop-color="#444B8C"/>
<stop offset="0.9964" stop-color="#3E4177"/>
</linearGradient>
<linearGradient id="paint36_linear_2_5" x1="206.45" y1="670.847" x2="209.423" y2="595.098" gradientUnits="userSpaceOnUse">
<stop stop-color="#444B8C"/>
<stop offset="0.9964" stop-color="#3E4177"/>
</linearGradient>
<linearGradient id="paint37_linear_2_5" x1="345.991" y1="687.994" x2="313.438" y2="611.111" gradientUnits="userSpaceOnUse">
<stop stop-color="#444B8C"/>
<stop offset="0.9964" stop-color="#3E4177"/>
</linearGradient>
<linearGradient id="paint38_linear_2_5" x1="203.074" y1="667.429" x2="205.616" y2="602.648" gradientUnits="userSpaceOnUse">
<stop stop-color="#444B8C"/>
<stop offset="0.9964" stop-color="#3E4177"/>
</linearGradient>
<linearGradient id="paint39_linear_2_5" x1="326.986" y1="683.331" x2="306.438" y2="634.8" gradientUnits="userSpaceOnUse">
<stop stop-color="#444B8C"/>
<stop offset="0.9964" stop-color="#3E4177"/>
</linearGradient>
<linearGradient id="paint40_linear_2_5" x1="344.274" y1="714.96" x2="349.037" y2="676.383" gradientUnits="userSpaceOnUse">
<stop stop-color="#FCB148"/>
<stop offset="0.0521" stop-color="#FDBA46"/>
<stop offset="0.1424" stop-color="#FFC244"/>
<stop offset="0.3183" stop-color="#FFC444"/>
<stop offset="0.4849" stop-color="#FDB946"/>
<stop offset="0.7754" stop-color="#F99C4D"/>
<stop offset="0.8658" stop-color="#F8924F"/>
<stop offset="1" stop-color="#F8924F"/>
</linearGradient>
<linearGradient id="paint41_linear_2_5" x1="549.172" y1="662.702" x2="442.25" y2="613.044" gradientUnits="userSpaceOnUse">
<stop stop-color="#444B8C"/>
<stop offset="0.9964" stop-color="#3E4177"/>
</linearGradient>
<linearGradient id="paint42_linear_2_5" x1="565.305" y1="644.804" x2="493.231" y2="611.331" gradientUnits="userSpaceOnUse">
<stop stop-color="#444B8C"/>
<stop offset="0.9964" stop-color="#3E4177"/>
</linearGradient>
<linearGradient id="paint43_linear_2_5" x1="626.642" y1="809.44" x2="617.95" y2="755.954" gradientUnits="userSpaceOnUse">
<stop stop-color="#FCB148"/>
<stop offset="0.0521" stop-color="#FDBA46"/>
<stop offset="0.1424" stop-color="#FFC244"/>
<stop offset="0.3183" stop-color="#FFC444"/>
<stop offset="0.4849" stop-color="#FDB946"/>
<stop offset="0.7754" stop-color="#F99C4D"/>
<stop offset="0.8658" stop-color="#F8924F"/>
<stop offset="1" stop-color="#F8924F"/>
</linearGradient>
<linearGradient id="paint44_linear_2_5" x1="626.548" y1="825.059" x2="617.949" y2="772.149" gradientUnits="userSpaceOnUse">
<stop stop-color="#FCB148"/>
<stop offset="0.0521" stop-color="#FDBA46"/>
<stop offset="0.1424" stop-color="#FFC244"/>
<stop offset="0.3183" stop-color="#FFC444"/>
<stop offset="0.4849" stop-color="#FDB946"/>
<stop offset="0.7754" stop-color="#F99C4D"/>
<stop offset="0.8658" stop-color="#F8924F"/>
<stop offset="1" stop-color="#F8924F"/>
</linearGradient>
<linearGradient id="paint45_linear_2_5" x1="253.634" y1="714.225" x2="337.412" y2="691.379" gradientUnits="userSpaceOnUse">
<stop stop-color="#FCB148"/>
<stop offset="0.0521" stop-color="#FDBA46"/>
<stop offset="0.1424" stop-color="#FFC244"/>
<stop offset="0.3183" stop-color="#FFC444"/>
<stop offset="0.4849" stop-color="#FDB946"/>
<stop offset="0.7754" stop-color="#F99C4D"/>
<stop offset="0.8658" stop-color="#F8924F"/>
<stop offset="1" stop-color="#F8924F"/>
</linearGradient>
</defs>
</svg>
