<svg width="25" height="25" viewBox="0 0 25 25" fill="none" xmlns="http://www.w3.org/2000/svg">
  <path d="M6.09373 17.8125C6.97915 17.1354 7.96873 16.6016 9.06248 16.2109C10.1562 15.8203 11.3021 15.625 12.5 15.625C13.6979 15.625 14.8437 15.8203 15.9375 16.2109C17.0312 16.6016 18.0208 17.1354 18.9062 17.8125C19.5139 17.1007 19.987 16.2934 20.3255 15.3906C20.664 14.4878 20.8333 13.5243 20.8333 12.5C20.8333 10.191 20.0217 8.22482 18.3984 6.60156C16.7752 4.97829 14.809 4.16666 12.5 4.16666C10.191 4.16666 8.22481 4.97829 6.60154 6.60156C4.97828 8.22482 4.16665 10.191 4.16665 12.5C4.16665 13.5243 4.33592 14.4878 4.67446 15.3906C5.013 16.2934 5.48609 17.1007 6.09373 17.8125ZM12.5 13.5417C11.4757 13.5417 10.612 13.1901 9.90883 12.487C9.20571 11.7838 8.85415 10.9201 8.85415 9.89583C8.85415 8.87152 9.20571 8.00781 9.90883 7.30468C10.612 6.60156 11.4757 6.24999 12.5 6.24999C13.5243 6.24999 14.388 6.60156 15.0911 7.30468C15.7943 8.00781 16.1458 8.87152 16.1458 9.89583C16.1458 10.9201 15.7943 11.7838 15.0911 12.487C14.388 13.1901 13.5243 13.5417 12.5 13.5417ZM12.5 22.9167C11.059 22.9167 9.70484 22.6432 8.43748 22.0963C7.17012 21.5495 6.06769 20.8073 5.13019 19.8698C4.19269 18.9323 3.4505 17.8299 2.90363 16.5625C2.35675 15.2951 2.08331 13.941 2.08331 12.5C2.08331 11.059 2.35675 9.70486 2.90363 8.43749C3.4505 7.17013 4.19269 6.0677 5.13019 5.1302C6.06769 4.1927 7.17012 3.45052 8.43748 2.90364C9.70484 2.35677 11.059 2.08333 12.5 2.08333C13.941 2.08333 15.2951 2.35677 16.5625 2.90364C17.8298 3.45052 18.9323 4.1927 19.8698 5.1302C20.8073 6.0677 21.5495 7.17013 22.0963 8.43749C22.6432 9.70486 22.9166 11.059 22.9166 12.5C22.9166 13.941 22.6432 15.2951 22.0963 16.5625C21.5495 17.8299 20.8073 18.9323 19.8698 19.8698C18.9323 20.8073 17.8298 21.5495 16.5625 22.0963C15.2951 22.6432 13.941 22.9167 12.5 22.9167Z" fill="#B1B1B1"/>
</svg>
